<?xml version="1.0" standalone="no"?>
<!DOCTYPE svg PUBLIC "-//W3C//DTD SVG 20010904//EN"
 "http://www.w3.org/TR/2001/REC-SVG-20010904/DTD/svg10.dtd">
<svg version="1.0" xmlns="http://www.w3.org/2000/svg"
 width="512.000000pt" height="512.000000pt" viewBox="0 0 512.000000 512.000000"
 preserveAspectRatio="xMidYMid meet">
<metadata>
Created by potrace 1.11, written by Peter Selinger 2001-2013
</metadata>
<g transform="translate(0.000000,512.000000) scale(0.100000,-0.100000)"
fill="#000000" stroke="none">
<path d="M11 3756 c-8 -10 -11 -134 -8 -462 3 -382 5 -456 19 -499 25 -74 178
-577 183 -598 2 -10 16 -57 30 -105 14 -48 28 -95 31 -104 5 -17 -6 -18 -130
-18 l-136 0 0 -253 0 -254 210 0 c116 0 212 -2 214 -4 2 -2 40 -125 84 -272
44 -148 83 -271 86 -274 7 -7 1363 -6 1374 1 5 3 13 20 17 38 4 18 8 35 9 38
1 3 4 10 8 15 7 12 23 87 20 98 -1 4 3 7 8 7 6 0 10 7 10 15 0 9 14 62 31 118
17 56 38 128 46 160 15 56 16 57 52 58 47 1 770 1 796 0 16 -1 24 -13 37 -58
31 -111 129 -438 140 -466 9 -22 17 -27 47 -28 50 0 1269 -1 1308 0 34 1 39 8
56 87 3 11 12 36 20 56 9 20 13 39 10 42 -3 2 -1 11 3 18 5 7 9 18 11 23 1 6
11 42 23 80 42 137 61 200 65 219 2 10 7 21 9 24 3 2 100 5 216 5 l210 0 0
254 0 253 -135 0 c-80 0 -135 4 -135 10 0 5 6 29 14 52 17 52 87 287 91 308 8
37 10 45 17 50 4 3 9 19 12 36 3 17 12 49 20 72 8 23 13 42 11 42 -2 0 4 20
15 45 11 25 17 45 15 45 -2 0 3 19 11 43 9 23 17 51 20 62 2 11 13 48 24 82
19 58 20 88 20 496 0 362 -2 437 -14 446 -10 9 -16 9 -21 1 -4 -6 -12 -7 -18
-3 -15 10 -38 10 -54 0 -6 -4 -14 -3 -18 3 -4 6 -12 7 -18 3 -19 -12 -36 -12
-43 -2 -4 6 -11 6 -19 -1 -10 -8 -15 -8 -20 0 -5 8 -11 8 -21 -1 -11 -9 -14
-9 -14 1 0 10 -3 10 -14 1 -9 -8 -16 -8 -20 -2 -8 12 -46 5 -62 -11 -9 -11
-82 -220 -88 -253 -1 -5 -5 -16 -9 -22 -5 -7 -5 -13 -1 -13 3 0 1 -7 -6 -15
-7 -8 -9 -15 -5 -15 4 0 2 -7 -5 -15 -6 -8 -13 -24 -15 -37 -2 -13 -33 -113
-70 -223 -37 -110 -67 -204 -69 -210 -1 -5 -5 -16 -10 -23 -4 -7 -5 -16 -2
-19 3 -3 2 -11 -3 -17 -10 -13 -46 -127 -43 -138 1 -5 -3 -8 -8 -8 -6 0 -10
-6 -10 -13 0 -7 -20 -76 -46 -152 -25 -77 -47 -147 -49 -155 -2 -8 -29 -91
-60 -185 -31 -93 -59 -177 -61 -185 -2 -8 -22 -69 -44 -135 -23 -66 -42 -124
-44 -130 -8 -31 -60 -192 -65 -200 -3 -5 -6 -15 -7 -20 -2 -15 -196 -608 -202
-619 -2 -5 -15 22 -27 60 -13 38 -87 265 -164 504 -78 239 -148 453 -156 475
-7 22 -70 216 -140 430 -69 215 -129 397 -132 405 -4 8 -7 17 -8 20 -16 52
-39 126 -40 130 -12 53 -261 787 -266 784 -4 -2 -11 0 -14 6 -5 8 -11 8 -20 0
-10 -8 -15 -8 -20 0 -5 8 -11 8 -21 -1 -11 -9 -14 -9 -14 1 0 10 -3 10 -14 1
-10 -9 -16 -9 -21 -1 -5 8 -10 8 -20 0 -9 -8 -15 -8 -20 0 -4 7 -12 7 -25 0
-13 -7 -21 -7 -25 0 -5 8 -11 7 -21 -1 -11 -9 -14 -9 -14 1 0 10 -3 10 -14 1
-10 -9 -16 -9 -21 -1 -5 8 -10 8 -20 0 -7 -6 -16 -7 -19 -2 -6 10 -36 9 -53
-1 -6 -4 -15 -3 -18 3 -5 8 -12 7 -22 -2 -9 -7 -17 -13 -18 -13 -1 0 -9 6 -18
13 -11 9 -17 10 -22 2 -5 -8 -11 -7 -22 2 -17 13 -20 13 -40 -3 -7 -7 -13 -6
-17 0 -5 7 -15 7 -31 1 -16 -6 -25 -6 -25 1 0 6 -7 6 -20 -1 -11 -6 -20 -7
-20 -2 0 5 -11 7 -25 4 -24 -4 -37 -16 -41 -37 -2 -5 -14 -44 -29 -85 -14 -41
-29 -86 -31 -100 -3 -13 -10 -30 -16 -37 -6 -7 -8 -13 -4 -13 3 0 -1 -16 -9
-36 -8 -20 -17 -46 -20 -58 -2 -11 -23 -75 -45 -141 -23 -66 -43 -128 -45
-137 -2 -9 -9 -27 -16 -40 -7 -13 -12 -25 -11 -28 2 -4 -8 -39 -24 -90 -3 -8
-5 -16 -5 -17 0 -2 -7 -22 -15 -45 -9 -24 -17 -47 -18 -53 -2 -5 -6 -18 -10
-27 -4 -9 -9 -25 -11 -35 -2 -10 -4 -19 -5 -20 -2 -2 -3 -6 -4 -10 -1 -5 -26
-80 -55 -168 -29 -88 -54 -164 -56 -170 -1 -5 -5 -18 -9 -27 -4 -9 -9 -22 -10
-30 -2 -7 -6 -20 -9 -28 -3 -8 -20 -60 -37 -115 -17 -55 -35 -109 -40 -120 -7
-18 -91 -278 -96 -297 -1 -5 -3 -10 -4 -13 -1 -3 -3 -8 -5 -12 -1 -5 -4 -15
-8 -23 -7 -18 -30 -91 -33 -105 -3 -14 -83 -257 -91 -275 -3 -8 -7 -19 -8 -25
0 -5 -4 -17 -7 -25 -17 -41 -58 -177 -58 -192 0 -9 -4 -18 -9 -20 -6 -1 -11
-14 -13 -28 -2 -14 -6 -29 -10 -35 -3 -5 -11 -29 -17 -52 -7 -24 -16 -43 -20
-43 -7 0 -34 77 -36 100 0 3 -3 10 -6 15 -6 9 -129 385 -135 410 -1 6 -19 60
-39 120 -20 61 -38 115 -39 120 -2 6 -8 23 -14 38 -7 16 -12 31 -12 35 0 4
-41 131 -91 282 -50 151 -92 280 -93 285 -1 6 -37 116 -80 245 -43 129 -79
240 -80 245 -4 17 -207 639 -216 660 -5 11 -25 73 -46 137 -20 65 -40 115 -45
113 -4 -3 -10 -1 -13 4 -7 10 -25 9 -43 -2 -6 -4 -15 -3 -18 3 -4 7 -12 7 -18
2 -14 -10 -27 -10 -44 1 -6 4 -15 3 -18 -3 -5 -8 -11 -7 -21 1 -11 9 -14 9
-14 -1 0 -10 -3 -10 -14 -1 -10 8 -16 9 -21 1 -3 -6 -12 -7 -18 -3 -17 10 -47
11 -53 1 -3 -5 -11 -4 -19 2 -9 7 -16 6 -24 -4z m2569 -948 c7 -24 18 -62 25
-85 8 -23 17 -52 19 -65 3 -13 26 -88 50 -168 25 -80 68 -221 96 -315 28 -93
53 -178 56 -187 5 -17 -12 -18 -266 -18 l-271 0 7 23 c4 12 17 58 30 102 13
44 57 193 99 330 41 138 78 259 81 270 9 35 10 39 28 98 10 31 21 57 26 57 5
0 14 -19 20 -42z"/>
</g>
</svg>
